<svg xmlns="http://www.w3.org/2000/svg" width="71" height="70" fill="none" viewBox="0 0 71 70"><path fill="#FFC536" d="M20.0671 60.128C18.1136 62.0815 10.9963 64.1841 7.01105 65.2443C5.7637 65.5762 4.62577 64.4375 4.95833 63.1904C6.02055 59.2069 8.12619 52.0938 10.0796 50.1404C12.8374 47.3826 17.3094 47.3762 20.0671 50.134C22.8313 52.8981 22.825 57.3701 20.0671 60.128Z"/><path fill="#F34624" d="M20.0684 55.8325C19.0604 56.8406 15.6406 57.9182 13.3161 58.5618C12.2947 58.8445 11.3598 57.9091 11.6432 56.8879C12.2879 54.5646 13.3669 51.1469 14.3748 50.1389C15.947 48.5668 18.4963 48.5632 20.0684 50.1353C21.6442 51.711 21.6406 54.2604 20.0684 55.8325Z"/><path fill="#2C3642" d="M28.0309 52.9218L24.6412 56.3116C24.0675 56.8852 23.1374 56.8852 22.5637 56.3116L13.8957 47.6435C13.322 47.0698 13.322 46.1397 13.8957 45.566L17.2854 42.1763L28.0309 52.9218Z"/><path fill="#CF2301" d="M44.3191 62.1633C39.525 66.0973 32.877 68.8638 26.1819 69.7857C24.7283 69.9859 23.7651 68.3726 24.6057 67.1699C28.1852 62.0479 30.341 56.4084 30.9919 50.9105L49.1325 37.5771C53.1173 46.1162 52.9593 55.0791 44.3191 62.1633Z"/><path fill="#CF2301" d="M32.2252 20.67L18.8917 38.8106C13.399 39.4668 7.75586 41.6191 2.6325 45.1975C1.42957 46.0376 -0.183465 45.0742 0.0170185 43.6206C0.940276 36.9269 3.7104 30.2828 7.63917 25.4835C14.7234 16.8433 23.6925 16.6916 32.2252 20.67Z"/><path fill="#EDEDED" d="M52.661 40.5091L29.8476 55.1639C28.685 55.9107 27.1592 55.7465 26.1822 54.7695L15.4341 44.0214C14.4571 43.0443 14.2929 41.5185 15.0397 40.356L29.6945 17.5426C31.1903 15.2159 32.9146 13.076 34.8155 11.1752C42.7304 3.26028 53.8091 -0.838425 65.0823 0.143491C67.7433 0.375268 69.8384 2.47823 70.0673 5.13948C71.2692 19.1125 64.6668 32.7937 52.661 40.5091Z"/><path fill="#CF2301" d="M68.3547 20.0952C69.8909 15.3337 70.5076 10.2573 70.0672 5.13859C69.8383 2.47797 67.7438 0.375584 65.0834 0.143794C59.9567 -0.302859 54.8739 0.311668 50.107 1.84752L68.3547 20.0952Z"/><path fill="#2C3642" d="M53.6813 30.1851C49.9 33.9664 43.7881 33.9664 40.0186 30.1969C36.2374 26.4156 36.2374 20.3037 40.0186 16.5224C43.7881 12.7529 49.9 12.7529 53.6813 16.5342C57.4508 20.3037 57.4508 26.4156 53.6813 30.1851Z"/><path fill="#00AEFF" d="M47.7498 30.749C51.8182 30.2574 54.7178 26.5607 54.2261 22.4923C53.7345 18.4239 50.0378 15.5244 45.9694 16.016C41.901 16.5077 39.0015 20.2043 39.4931 24.2727C39.9848 28.3411 43.6814 31.2407 47.7498 30.749Z"/></svg>